# xmcd
# 
# Track frame offsets:
#     150
#     17672
#     30894
#     49241
#     68370
#     84273
#     97117
#     111687
#     128768
#     156249
# 
# Disc length: 2197
# 
# Revision: 2
# Processed by: cddbd v1.5.2PL0 Copyright (c) Steve Scherf et al.
# Submitted via: BonkEnc v1.0.8
# 
DISCID=7708930a
DTITLE=S.P.P.T. - Chalturnik
DYEAR=1974
DGENRE=Contemporary Jazz
TTITLE0=Nasze Male Trzydziestolecie
TTITLE1=Lampasiasty
TTITLE2=El Condor Pasa
TTITLE3=Sernade In Blue - I'm Getting Sentimental
TTITLE4=Cocneyem
TTITLE5=What's New, Pussycat
TTITLE6=Podwieczorek Bez Mikrofonu
TTITLE7=Malgoska
TTITLE8=Music For K.
TTITLE9=Blizej Wiosny
EXTD=YEAR: 1974
EXTT0=
EXTT1=
EXTT2=
EXTT3=
EXTT4=
EXTT5=
EXTT6=
EXTT7=
EXTT8=
EXTT9=
PLAYORDER=
